<svg xmlns="http://www.w3.org/2000/svg" width="1200" height="800" viewBox="0 0 1200 800" role="img" aria-labelledby="title desc">
<title id="title">日本交通 IC 卡准备示意</title><desc id="desc">无品牌交通卡靠近感应读卡器，卡片与读卡动作以金色线条强调；原创示意非实景。不表示卡片互通范围、余额、票价或可用服务。</desc>
<metadata>Original code-native schematic generated for Mangen. 原创示意非实景. No third-party artwork, logos, photographs, embedded fonts, or external resources.</metadata>
<rect width="1200" height="800" fill="#F4F1EB"/>
<circle cx="600" cy="400" r="272" fill="none" stroke="#D4C9B5" stroke-width="1.5"/>
<path d="M286 400H313M887 400H914M600 86V113M600 687V714" stroke="#D4C9B5" stroke-width="2"/>
<circle cx="696" cy="326" r="146" fill="#E5DDCF" stroke="none" stroke-width="6" /><rect x="653" y="291" width="166" height="287" rx="22" fill="#F4F1EB" stroke="#20211F" stroke-width="6" /><rect x="674" y="315" width="124" height="101" rx="10" fill="#20211F" stroke="none" stroke-width="6" /><circle cx="736" cy="365" r="14" fill="#A58A58" stroke="none" stroke-width="6" /><path d="M722 343q29 22 0 44M750 334q39 31 0 62" fill="none" stroke="#F4F1EB" stroke-width="5" stroke-linecap="round" stroke-linejoin="round" /><path d="M684 464L787 464" fill="none" stroke="#D4C9B5" stroke-width="4" stroke-linecap="round" stroke-linejoin="round" /><path d="M684 491L770 491" fill="none" stroke="#D4C9B5" stroke-width="4" stroke-linecap="round" stroke-linejoin="round" /><path d="M684 518L753 518" fill="none" stroke="#D4C9B5" stroke-width="4" stroke-linecap="round" stroke-linejoin="round" /><g transform="rotate(-12 509 422)"><rect x="351" y="322" width="315" height="201" rx="22" fill="#F4F1EB" stroke="#20211F" stroke-width="7" /><rect x="375" y="350" width="62" height="48" rx="10" fill="#A58A58" stroke="none" stroke-width="6" /><path d="M406 350L406 398" fill="none" stroke="#F4F1EB" stroke-width="3" stroke-linecap="round" stroke-linejoin="round" /><path d="M376 374L437 374" fill="none" stroke="#F4F1EB" stroke-width="3" stroke-linecap="round" stroke-linejoin="round" /><path d="M378 457L504 457" fill="none" stroke="#20211F" stroke-width="7" stroke-linecap="round" stroke-linejoin="round" /><path d="M378 480L556 480" fill="none" stroke="#D4C9B5" stroke-width="5" stroke-linecap="round" stroke-linejoin="round" /><path d="M574 353q19 17 0 34M590 341q32 29 0 58M607 331q42 39 0 78" fill="none" stroke="#A58A58" stroke-width="5" stroke-linecap="round" stroke-linejoin="round" /></g><path d="M528 260q72 -41 132 7" fill="none" stroke="#A58A58" stroke-width="5" stroke-linecap="round" stroke-linejoin="round" /><path d="M641 243l21 26-34 3" fill="none" stroke="#A58A58" stroke-width="5" stroke-linecap="round" stroke-linejoin="round" /><ellipse cx="597" cy="601" rx="231" ry="11" fill="#E5DDCF" stroke="none" stroke-width="6" />
</svg>