<svg xmlns="http://www.w3.org/2000/svg" width="1200" height="800" viewBox="0 0 1200 800" role="img" aria-labelledby="title desc">
<title id="title">新干线出行准备示意</title><desc id="desc">流线型高速列车、轨道与行李箱组成的简洁插画；原创示意非实景。不表示具体列车型号、座位、班次、车站或行李政策。</desc>
<metadata>Original code-native schematic generated for Mangen. 原创示意非实景. No third-party artwork, logos, photographs, embedded fonts, or external resources.</metadata>
<rect width="1200" height="800" fill="#F4F1EB"/>
<circle cx="600" cy="400" r="272" fill="none" stroke="#D4C9B5" stroke-width="1.5"/>
<path d="M286 400H313M887 400H914M600 86V113M600 687V714" stroke="#D4C9B5" stroke-width="2"/>
<circle cx="660" cy="341" r="171" fill="#E5DDCF" stroke="none" stroke-width="6" /><path d="M334 548H866M357 579H843" fill="none" stroke="#20211F" stroke-width="5" stroke-linecap="round" stroke-linejoin="round" /><path d="M380 548L364 579" fill="none" stroke="#A58A58" stroke-width="4" stroke-linecap="round" stroke-linejoin="round" /><path d="M450 548L434 579" fill="none" stroke="#A58A58" stroke-width="4" stroke-linecap="round" stroke-linejoin="round" /><path d="M520 548L504 579" fill="none" stroke="#A58A58" stroke-width="4" stroke-linecap="round" stroke-linejoin="round" /><path d="M590 548L574 579" fill="none" stroke="#A58A58" stroke-width="4" stroke-linecap="round" stroke-linejoin="round" /><path d="M660 548L644 579" fill="none" stroke="#A58A58" stroke-width="4" stroke-linecap="round" stroke-linejoin="round" /><path d="M730 548L714 579" fill="none" stroke="#A58A58" stroke-width="4" stroke-linecap="round" stroke-linejoin="round" /><path d="M800 548L784 579" fill="none" stroke="#A58A58" stroke-width="4" stroke-linecap="round" stroke-linejoin="round" /><path d="M364 511V350q0 -56 62 -56h218q56 0 99 39l113 105q12 13 12 33v40Z" fill="#F4F1EB" stroke="#20211F" stroke-width="7" stroke-linecap="round" stroke-linejoin="round" /><path d="M679 318q28 4 57 30l54 49H668Z" fill="#20211F" stroke="none" stroke-width="6" stroke-linecap="round" stroke-linejoin="round" /><rect x="394" y="324" width="43" height="56" rx="9" fill="#20211F" stroke="none" stroke-width="6" /><rect x="456" y="324" width="43" height="56" rx="9" fill="#20211F" stroke="none" stroke-width="6" /><rect x="518" y="324" width="43" height="56" rx="9" fill="#20211F" stroke="none" stroke-width="6" /><rect x="580" y="324" width="43" height="56" rx="9" fill="#20211F" stroke="none" stroke-width="6" /><path d="M365 443H819" fill="none" stroke="#A58A58" stroke-width="11" stroke-linecap="round" stroke-linejoin="round" /><path d="M365 481L855 481" fill="none" stroke="#D4C9B5" stroke-width="4" stroke-linecap="round" stroke-linejoin="round" /><circle cx="437" cy="518" r="17" fill="#20211F" stroke="none" stroke-width="6" /><circle cx="741" cy="518" r="17" fill="#20211F" stroke="none" stroke-width="6" /><path d="M386 251H516M352 273H459" fill="none" stroke="#D4C9B5" stroke-width="4" stroke-linecap="round" stroke-linejoin="round" /><rect x="423" y="387" width="72" height="118" rx="12" fill="#F4F1EB" stroke="#20211F" stroke-width="5" /><path d="M443 387v-22q0 -8 9 -8h15q9 0 9 8v22" fill="none" stroke="#20211F" stroke-width="5" stroke-linecap="round" stroke-linejoin="round" /><path d="M440 408L440 484" fill="none" stroke="#A58A58" stroke-width="4" stroke-linecap="round" stroke-linejoin="round" /><path d="M479 408L479 484" fill="none" stroke="#A58A58" stroke-width="4" stroke-linecap="round" stroke-linejoin="round" /><circle cx="439" cy="514" r="6" fill="#20211F" stroke="none" stroke-width="6" /><circle cx="480" cy="514" r="6" fill="#20211F" stroke="none" stroke-width="6" />
</svg>