<svg xmlns="http://www.w3.org/2000/svg" width="1200" height="800" viewBox="0 0 1200 800" role="img" aria-labelledby="title desc">
<title id="title">箱根山水与缆车示意</title><desc id="desc">山峦、湖面波纹和悬挂式缆车的原创组合图；原创示意非实景。不对应实际观景位置、交通连接、缆车运营状态或富士山能见度。</desc>
<metadata>Original code-native schematic generated for Mangen. 原创示意非实景. No third-party artwork, logos, photographs, embedded fonts, or external resources.</metadata>
<rect width="1200" height="800" fill="#F4F1EB"/>
<circle cx="600" cy="400" r="272" fill="none" stroke="#D4C9B5" stroke-width="1.5"/>
<path d="M286 400H313M887 400H914M600 86V113M600 687V714" stroke="#D4C9B5" stroke-width="2"/>
<circle cx="701" cy="319" r="86" fill="#A58A58" stroke="none" stroke-width="6" /><path d="M337 509L480 326l83 106 72-92 224 169Z" fill="#E5DDCF" stroke="none" stroke-width="6" stroke-linecap="round" stroke-linejoin="round" /><path d="M337 509L480 326l83 106 72-92 224 169" fill="none" stroke="#20211F" stroke-width="6" stroke-linecap="round" stroke-linejoin="round" /><path d="M448 366l34 15 30-13M605 378l27 15 33-8" fill="none" stroke="#F4F1EB" stroke-width="5" stroke-linecap="round" stroke-linejoin="round" /><path d="M343 272Q600 362 857 273" fill="none" stroke="#20211F" stroke-width="5" stroke-linecap="round" stroke-linejoin="round" /><path d="M606 320L606 358" fill="none" stroke="#20211F" stroke-width="5" stroke-linecap="round" stroke-linejoin="round" /><path d="M595 358h24" fill="none" stroke="#20211F" stroke-width="5" stroke-linecap="round" stroke-linejoin="round" /><rect x="563" y="366" width="86" height="81" rx="15" fill="#F4F1EB" stroke="#20211F" stroke-width="6" /><rect x="575" y="378" width="61" height="37" rx="7" fill="#A58A58" stroke="none" stroke-width="6" /><path d="M605 378L605 415" fill="none" stroke="#F4F1EB" stroke-width="4" stroke-linecap="round" stroke-linejoin="round" /><path d="M575 435h62" fill="none" stroke="#D4C9B5" stroke-width="4" stroke-linecap="round" stroke-linejoin="round" /><path d="M340 541q32 -14 65 0t65 0t65 0t65 0t65 0t65 0t65 0t65 0" fill="none" stroke="#A58A58" stroke-width="4" stroke-linecap="round" stroke-linejoin="round" /><path d="M340 568q32 -14 65 0t65 0t65 0t65 0t65 0t65 0t65 0t65 0" fill="none" stroke="#D4C9B5" stroke-width="4" stroke-linecap="round" stroke-linejoin="round" /><path d="M340 595q32 -14 65 0t65 0t65 0t65 0t65 0t65 0t65 0t65 0" fill="none" stroke="#D4C9B5" stroke-width="4" stroke-linecap="round" stroke-linejoin="round" />
</svg>