<svg xmlns="http://www.w3.org/2000/svg" width="1280" height="720" viewBox="0 0 1280 720" role="img" aria-labelledby="title desc">
<title id="title">神社寺院参拜与御朱印本主题示意</title><desc id="desc">抽象鸟居前放着翻开的无真实印章笔记本，原创示意非实景。 鸟居为神社相关符号，不表示所有寺院的入口形式；非真实神社、寺院、御朱印或礼仪步骤图。</desc>
<metadata>Original AI-assisted code-native conceptual illustration for Mangen. 原创示意非实景. No third-party photographs, artwork, logos, embedded fonts, or external resources. Not an official map, stamp, or service depiction.</metadata>
<rect x="0" y="0" width="1280" height="720" rx="0" fill="#F4F1EB" stroke="none" stroke-width="5"/><circle cx="762" cy="261" r="110" fill="#E5DDCF" stroke="none" stroke-width="5"/><ellipse cx="642" cy="583" rx="257" ry="12" fill="#E5DDCF" stroke="none" stroke-width="5"/><path d="M420 547l14 -306h28l17 306M777 547l17 -306h28l16 306" fill="#F4F1EB" stroke="#20211F" stroke-width="5" stroke-linecap="round" stroke-linejoin="round"/><path d="M381 223q243 42 493 0l-8 28q-240 39 -476 0Z" fill="#20211F" stroke="#20211F" stroke-width="4" stroke-linecap="round" stroke-linejoin="round"/><path d="M397 291h459v24H397Z" fill="#A58A58" stroke="#20211F" stroke-width="4" stroke-linecap="round" stroke-linejoin="round"/><rect x="608" y="259" width="44" height="58" rx="1" fill="#F4F1EB" stroke="#20211F" stroke-width="4"/><path d="M471 377h277" fill="none" stroke="#D4C9B5" stroke-width="4" stroke-linecap="round" stroke-linejoin="round"/><path d="M519 378l-10 25 19 12 -18 26M700 378l-10 25 19 12 -18 26" fill="none" stroke="#D4C9B5" stroke-width="3" stroke-linecap="round" stroke-linejoin="round"/><path d="M478 459q97 -37 168 0q80 -37 171 0v134q-97 -34 -171 0q-74 -34 -168 0Z" fill="#F4F1EB" stroke="#20211F" stroke-width="5" stroke-linecap="round" stroke-linejoin="round"/><path d="M646 459v134" fill="none" stroke="#20211F" stroke-width="4" stroke-linecap="round" stroke-linejoin="round"/><path d="M495 476q73 -27 132 0v96q-62 -23 -132 0Z" fill="#FBF9F4" stroke="#D4C9B5" stroke-width="1.5" stroke-linecap="round" stroke-linejoin="round"/><path d="M666 476q72 -27 131 0v96q-61 -23 -131 0Z" fill="#FBF9F4" stroke="#D4C9B5" stroke-width="1.5" stroke-linecap="round" stroke-linejoin="round"/><path d="M550 535q5 -23 33 -34q6 34 -26 40" fill="none" stroke="#A58A58" stroke-width="4" stroke-linecap="round" stroke-linejoin="round"/><path d="M553 550q7 -28 22 -39" fill="none" stroke="#A58A58" stroke-width="3" stroke-linecap="round" stroke-linejoin="round"/><path d="M685 501L778 501" fill="none" stroke="#D4C9B5" stroke-width="2" stroke-linecap="round" stroke-linejoin="round"/><path d="M685 520L760 520" fill="none" stroke="#D4C9B5" stroke-width="2" stroke-linecap="round" stroke-linejoin="round"/><path d="M685 539L771 539" fill="none" stroke="#D4C9B5" stroke-width="2" stroke-linecap="round" stroke-linejoin="round"/><path d="M707 577l-1 35 14 -9 12 9v-37" fill="#A58A58" stroke="none" stroke-width="5" stroke-linecap="round" stroke-linejoin="round"/>
</svg>